<svg width="26" height="24" viewBox="0 0 26 24" fill="none" xmlns="http://www.w3.org/2000/svg">
<path fill-rule="evenodd" clip-rule="evenodd" d="M13.1544 24C6.43398 24 0.985962 18.6274 0.985962 12C0.985962 5.37258 6.43398 0 13.1544 0C19.8749 0 25.3229 5.37258 25.3229 12C25.3229 18.6274 19.8749 24 13.1544 24ZM13.1544 21.8182C18.653 21.8182 23.1105 17.4224 23.1105 12C23.1105 6.57757 18.653 2.18182 13.1544 2.18182C7.65588 2.18182 3.19841 6.57757 3.19841 12C3.19841 17.4224 7.65588 21.8182 13.1544 21.8182ZM17.5076 7.29289L12.1404 12.5858L9.81532 10.2929L8.38125 11.7071L12.1404 15.4142L18.9417 8.70711L17.5076 7.29289Z" fill="#4C9859"/>
</svg>
