<svg width="170" height="175" viewBox="0 0 170 175" fill="none" xmlns="http://www.w3.org/2000/svg">
<g clip-path="url(#clip0)">
<path d="M169.205 38.193C166.902 46.1082 160.175 51.6489 153.159 56.3557C152.179 57.0131 151.199 57.6553 150.219 58.2823C150.212 58.2852 150.205 58.2914 150.198 58.2943C150.151 58.3243 150.104 58.3544 150.06 58.3846C149.858 58.5138 149.655 58.643 149.455 58.7707L149.565 58.8197C149.565 58.8197 149.673 58.8767 149.555 58.8289C149.52 58.8143 149.483 58.8012 149.447 58.7865C145.371 57.1582 141.223 55.41 138.099 52.3598C134.859 49.1923 132.965 44.2243 134.72 40.0632C134.95 39.5181 135.241 39.0002 135.588 38.5192C135.73 38.3175 135.884 38.1244 136.043 37.9349C137.011 36.7649 138.276 35.8714 139.708 35.3462C141.141 34.8209 142.688 34.683 144.192 34.9465C145.696 35.21 147.101 35.8655 148.265 36.8455C149.428 37.8255 150.307 39.0947 150.811 40.5226C151.326 35.769 147.368 31.7871 143.56 28.8491C139.75 25.9125 135.42 22.7146 134.683 17.9874C134.272 15.3572 135.195 12.8083 136.878 10.7622C136.93 10.7 136.982 10.6379 137.035 10.5775C139.083 8.1943 141.963 6.66397 145.1 6.29215C150.943 5.69074 156.618 8.75372 160.863 12.7771C167.694 19.2504 171.824 29.1934 169.205 38.193Z" fill="#F2F2F2"/>
<path d="M158.223 27.8403C159.345 29.5682 160.206 31.4488 160.779 33.4227C161.264 35.187 161.479 37.0132 161.419 38.8407C161.314 42.597 160.147 46.2677 158.311 49.537C156.891 52.0159 155.159 54.3071 153.159 56.3561C152.179 57.0134 151.199 57.6556 150.219 58.2827C150.212 58.2855 150.205 58.2917 150.198 58.2946C150.151 58.3246 150.104 58.3547 150.06 58.3849C149.858 58.5141 149.655 58.6433 149.455 58.771C149.455 58.771 149.673 58.8771 149.555 58.8292C149.52 58.8146 149.483 58.8015 149.447 58.7868C149.813 55.8203 149.455 52.8102 148.404 50.0089C147.353 47.2076 145.639 44.6966 143.406 42.6863C141.168 40.7067 138.489 39.2789 135.588 38.5195C135.73 38.3178 135.884 38.1247 136.043 37.9353C137.164 38.2464 138.254 38.6551 139.302 39.1566C143.048 40.938 146.114 43.8665 148.049 47.5085C149.784 50.8157 150.531 54.5446 150.202 58.2576C150.369 58.1073 150.537 57.9537 150.7 57.8016C153.797 54.9415 156.548 51.6585 158.41 47.8697C160.026 44.6611 160.819 41.1083 160.722 37.5243C160.57 33.6163 158.998 29.9966 156.722 26.8453C154.283 23.4728 151.226 20.4889 147.962 17.904C144.619 15.2517 140.96 13.0145 137.068 11.2424C136.98 11.2019 136.911 11.1294 136.876 11.0401C136.84 10.9508 136.841 10.8514 136.878 10.7625C136.904 10.6828 136.96 10.6164 137.035 10.5778C137.074 10.5613 137.116 10.5537 137.158 10.5554C137.2 10.5572 137.241 10.5683 137.278 10.588C137.759 10.8071 138.236 11.0292 138.709 11.261C142.652 13.1912 146.338 15.5991 149.681 18.4293C152.911 21.1564 155.951 24.2721 158.223 27.8403Z" fill="white"/>
<path d="M131.61 83.5145C136.329 83.5145 140.154 79.7257 140.154 75.0519C140.154 70.3782 136.329 66.5894 131.61 66.5894C126.891 66.5894 123.066 70.3782 123.066 75.0519C123.066 79.7257 126.891 83.5145 131.61 83.5145Z" fill="#2F2E41"/>
<path d="M124.941 70.4893C126.322 69.1218 126.601 67.1817 125.566 66.1561C124.53 65.1305 122.571 65.4076 121.191 66.7751C119.81 68.1426 119.53 70.0827 120.566 71.1083C121.601 72.1339 123.56 71.8568 124.941 70.4893Z" fill="#2F2E41"/>
<path d="M140.516 67.8015C141.091 66.4677 140.102 64.7705 138.306 64.0108C136.51 63.2511 134.588 63.7165 134.013 65.0504C133.438 66.3843 134.427 68.0814 136.223 68.8411C138.018 69.6009 139.94 69.1354 140.516 67.8015Z" fill="#2F2E41"/>
<path d="M149.705 111.387C148.237 112.398 146.685 113.283 145.067 114.036L144.828 113.617L142.538 109.636L142.337 109.287L141.166 107.251L141.163 107.248L137.465 100.812L135.564 97.5085L141.209 93.5872L143.405 98.1855L144.596 100.683L149.497 110.949L149.705 111.387Z" fill="#A0616A"/>
<path d="M144.661 95.8602L143.953 94.762L140.823 89.8981C140.395 88.9531 139.607 88.2144 138.631 87.8439C137.654 87.4733 136.57 87.5011 135.614 87.9212C134.659 88.3412 133.91 89.1193 133.532 90.0849C133.155 91.0505 133.179 92.125 133.6 93.0729L135.535 99.9011C135.59 100.094 135.685 100.274 135.816 100.427C135.946 100.581 136.108 100.705 136.291 100.791C136.474 100.878 136.673 100.924 136.876 100.928C137.078 100.932 137.279 100.892 137.465 100.813C137.472 100.81 137.477 100.808 137.484 100.805L143.405 98.1857L144.043 97.9034C144.229 97.8203 144.395 97.6986 144.529 97.5464C144.664 97.3943 144.764 97.2153 144.823 97.0215C144.881 96.8278 144.897 96.6238 144.869 96.4235C144.841 96.2231 144.77 96.031 144.661 95.8602H144.661Z" fill="#F9A826"/>
<path d="M127.65 96.0128L126.003 99.6972L125.646 100.499L119.546 114.145L119.35 114.583C117.699 113.901 116.108 113.082 114.596 112.133L114.761 111.674L119.739 97.7617L120.962 94.3452L123.638 95.0127L127.65 96.0128Z" fill="#A0616A"/>
<path d="M138.244 80.5174C140.165 77.0369 138.874 72.6731 135.359 70.7705C131.845 68.8679 127.439 70.147 125.518 73.6275C123.597 77.108 124.889 81.4718 128.403 83.3744C131.917 85.277 136.323 83.9979 138.244 80.5174Z" fill="#A0616A"/>
<path d="M144.521 97.5564C144.416 96.61 144.226 95.6748 143.953 94.762C143.131 92.0134 141.559 89.543 139.41 87.6228C138.62 86.9208 137.596 86.5331 136.535 86.5342H126.319C125.585 86.5323 124.863 86.7168 124.221 87.0701C123.579 87.4234 123.04 87.9337 122.654 88.5523C122.268 89.1709 122.048 89.8772 122.017 90.6036C121.985 91.3301 122.141 92.0526 122.471 92.702L123.638 95.0132L126.003 99.6977L126.571 100.82L129.1 105.832L129.3 106.229L142.139 109.727L142.195 109.605C142.243 109.497 142.291 109.392 142.337 109.287C142.407 109.126 142.477 108.971 142.543 108.813C143.837 105.772 144.449 103.066 144.596 100.683C144.662 99.6409 144.637 98.5946 144.521 97.5564Z" fill="#F9A826"/>
<path d="M128.172 87.8454C127.227 87.4069 126.145 87.3571 125.163 87.7068C124.181 88.0566 123.379 88.7774 122.933 89.7116L122.022 91.0729L118.978 95.6234C118.865 95.7923 118.79 95.9832 118.759 96.1833C118.727 96.3834 118.739 96.588 118.794 96.783C118.85 96.978 118.947 97.1589 119.079 97.3135C119.211 97.468 119.375 97.5926 119.56 97.6786L119.739 97.7623L125.645 100.499L126.066 100.693C126.224 100.767 126.396 100.81 126.57 100.82C126.804 100.838 127.038 100.798 127.252 100.703C127.438 100.62 127.604 100.499 127.739 100.347C127.873 100.195 127.973 100.016 128.032 99.8223L130.076 93.0491C130.519 92.1089 130.568 91.0329 130.211 90.0573C129.854 89.0816 129.121 88.2861 128.172 87.8454Z" fill="#F9A826"/>
<path d="M142.543 108.813C142.5 108.664 142.43 108.524 142.338 108.399C142.007 107.96 141.612 107.573 141.166 107.25L141.164 107.248C139.61 106.083 136.518 104.721 130.554 104.686H130.545C130.271 104.685 130.003 104.763 129.773 104.909C129.543 105.056 129.361 105.265 129.247 105.511L129.1 105.832L128.151 107.899C128.07 108.077 127.942 108.23 127.781 108.341C126.923 108.942 124.194 111.119 122.783 115.277C122.732 115.425 122.684 115.576 122.638 115.732C128.67 117.477 135.087 117.419 141.086 115.567L141.219 115.023L142.538 109.636L142.56 109.547C142.62 109.305 142.614 109.052 142.543 108.813Z" fill="#2F2E41"/>
<path d="M124.261 72.5545C125.918 73.6857 127.885 74.2877 129.898 74.2797C129.18 74.7727 128.362 75.1057 127.502 75.2558C130.178 75.8243 132.943 75.8397 135.625 75.301C136.222 75.2063 136.797 75.0106 137.326 74.7225C137.59 74.5767 137.819 74.3775 138 74.138C138.181 73.8984 138.309 73.6239 138.376 73.3322C138.554 72.3238 137.761 71.4076 136.936 70.7901C135.674 69.8592 134.218 69.2178 132.675 68.9124C131.132 68.607 129.539 68.6451 128.012 69.024C127.016 69.2792 126.017 69.7104 125.37 70.5033C124.722 71.2961 124.53 72.5185 125.147 73.3349L124.261 72.5545Z" fill="#2F2E41"/>
<path d="M134.265 7.29175H3.26245V7.81179H134.265V7.29175Z" fill="#3F3D56"/>
<path d="M7.72533 5.46151C8.59528 5.46151 9.30051 4.76303 9.30051 3.90141C9.30051 3.03979 8.59528 2.34131 7.72533 2.34131C6.85538 2.34131 6.15015 3.03979 6.15015 3.90141C6.15015 4.76303 6.85538 5.46151 7.72533 5.46151Z" fill="#3F3D56"/>
<path d="M12.2539 5.46151C13.1238 5.46151 13.8291 4.76303 13.8291 3.90141C13.8291 3.03979 13.1238 2.34131 12.2539 2.34131C11.3839 2.34131 10.6787 3.03979 10.6787 3.90141C10.6787 4.76303 11.3839 5.46151 12.2539 5.46151Z" fill="#3F3D56"/>
<path d="M16.7827 5.46151C17.6526 5.46151 18.3579 4.76303 18.3579 3.90141C18.3579 3.03979 17.6526 2.34131 16.7827 2.34131C15.9128 2.34131 15.2075 3.03979 15.2075 3.90141C15.2075 4.76303 15.9128 5.46151 16.7827 5.46151Z" fill="#3F3D56"/>
<path d="M105.893 37.4714H31.541C31.3197 37.4714 31.1006 37.4282 30.8962 37.3443C30.6917 37.2605 30.506 37.1375 30.3495 36.9826C30.193 36.8276 30.0689 36.6436 29.9842 36.4411C29.8995 36.2386 29.856 36.0216 29.856 35.8024C29.856 35.5833 29.8995 35.3663 29.9842 35.1638C30.0689 34.9613 30.193 34.7773 30.3495 34.6224C30.506 34.4674 30.6917 34.3445 30.8962 34.2606C31.1006 34.1767 31.3197 34.1335 31.541 34.1335H105.893C106.115 34.1335 106.334 34.1767 106.538 34.2606C106.743 34.3445 106.928 34.4674 107.085 34.6224C107.241 34.7773 107.365 34.9613 107.45 35.1638C107.535 35.3663 107.578 35.5833 107.578 35.8024C107.578 36.0216 107.535 36.2386 107.45 36.4411C107.365 36.6436 107.241 36.8276 107.085 36.9826C106.928 37.1375 106.743 37.2605 106.538 37.3443C106.334 37.4282 106.115 37.4714 105.893 37.4714Z" fill="#CCCCCC"/>
<path d="M105.893 55.4123H31.541C31.3197 55.4123 31.1006 55.3691 30.8962 55.2852C30.6917 55.2014 30.506 55.0784 30.3495 54.9235C30.193 54.7685 30.0689 54.5845 29.9842 54.382C29.8995 54.1796 29.856 53.9625 29.856 53.7434C29.856 53.5242 29.8995 53.3072 29.9842 53.1047C30.0689 52.9022 30.193 52.7182 30.3495 52.5633C30.506 52.4083 30.6917 52.2854 30.8962 52.2015C31.1006 52.1176 31.3197 52.0745 31.541 52.0745H105.893C106.115 52.0745 106.334 52.1176 106.538 52.2015C106.743 52.2854 106.928 52.4083 107.085 52.5633C107.241 52.7182 107.365 52.9022 107.45 53.1047C107.535 53.3072 107.578 53.5242 107.578 53.7434C107.578 53.9625 107.535 54.1796 107.45 54.382C107.365 54.5845 107.241 54.7685 107.085 54.9235C106.928 55.0784 106.743 55.2014 106.538 55.2852C106.334 55.3691 106.115 55.4123 105.893 55.4123Z" fill="#E6E6E6"/>
<path d="M105.893 62.2963H31.541C31.0941 62.2963 30.6655 62.1205 30.3495 61.8075C30.0335 61.4945 29.856 61.07 29.856 60.6274C29.856 60.1848 30.0335 59.7603 30.3495 59.4473C30.6655 59.1343 31.0941 58.9585 31.541 58.9585H105.893C106.34 58.9585 106.769 59.1343 107.085 59.4473C107.401 59.7603 107.578 60.1848 107.578 60.6274C107.578 61.07 107.401 61.4945 107.085 61.8075C106.769 62.1205 106.34 62.2963 105.893 62.2963Z" fill="#E6E6E6"/>
<path d="M93.782 30.3788H43.6521C43.2052 30.3788 42.7766 30.203 42.4606 29.89C42.1446 29.577 41.967 29.1525 41.967 28.7099C41.967 28.2673 42.1446 27.8428 42.4606 27.5298C42.7766 27.2168 43.2052 27.041 43.6521 27.041H93.782C94.2289 27.041 94.6575 27.2168 94.9735 27.5298C95.2895 27.8428 95.467 28.2673 95.467 28.7099C95.467 29.1525 95.2895 29.577 94.9735 29.89C94.6575 30.203 94.2289 30.3788 93.782 30.3788Z" fill="#CCCCCC"/>
<path d="M57.7536 48.528H31.6355C31.4141 48.5283 31.1948 48.4853 30.9901 48.4016C30.7854 48.3178 30.5994 48.1949 30.4427 48.0399C30.2861 47.8849 30.1618 47.7009 30.0769 47.4982C29.9921 47.2956 29.9485 47.0784 29.9485 46.8591C29.9485 46.6398 29.9921 46.4226 30.0769 46.22C30.1618 46.0174 30.2861 45.8333 30.4427 45.6783C30.5994 45.5233 30.7854 45.4004 30.9901 45.3167C31.1948 45.2329 31.4141 45.1899 31.6355 45.1902H57.7536C58.2005 45.1902 58.6291 45.366 58.9451 45.679C59.2611 45.992 59.4387 46.4165 59.4387 46.8591C59.4387 47.3017 59.2611 47.7262 58.9451 48.0392C58.6291 48.3522 58.2005 48.528 57.7536 48.528Z" fill="#E6E6E6"/>
<path d="M105.988 48.528H79.8697C79.6482 48.5283 79.4289 48.4853 79.2242 48.4016C79.0195 48.3178 78.8336 48.1949 78.6769 48.0399C78.5202 47.8849 78.3959 47.7009 78.3111 47.4982C78.2263 47.2956 78.1826 47.0784 78.1826 46.8591C78.1826 46.6398 78.2263 46.4226 78.3111 46.22C78.3959 46.0174 78.5202 45.8333 78.6769 45.6783C78.8336 45.5233 79.0195 45.4004 79.2242 45.3167C79.4289 45.2329 79.6482 45.1899 79.8697 45.1902H105.988C106.209 45.1899 106.429 45.2329 106.633 45.3167C106.838 45.4004 107.024 45.5233 107.181 45.6783C107.337 45.8333 107.462 46.0174 107.546 46.22C107.631 46.4226 107.675 46.6398 107.675 46.8591C107.675 47.0784 107.631 47.2956 107.546 47.4982C107.462 47.7009 107.337 47.8849 107.181 48.0399C107.024 48.1949 106.838 48.3178 106.633 48.4016C106.429 48.4853 106.209 48.5283 105.988 48.528Z" fill="#E6E6E6"/>
<path d="M132.689 0H4.83589C4.34879 0.000733936 3.88189 0.192868 3.53769 0.534222C3.19348 0.875576 3.00011 1.33825 3 1.82069V87.6274C3.00061 88.1095 3.19423 88.5716 3.5384 88.9125C3.88256 89.2533 4.34917 89.4451 4.83589 89.4457H100.443C100.419 89.2734 100.4 89.0988 100.381 88.9265H4.83589C4.4881 88.9262 4.15465 88.7892 3.90872 88.5457C3.6628 88.3021 3.52449 87.9718 3.52417 87.6274V1.82069C3.5244 1.47598 3.66259 1.14542 3.90847 0.901456C4.15435 0.65749 4.48785 0.520018 4.83589 0.51917H132.689C133.038 0.519531 133.372 0.656769 133.618 0.900773C133.865 1.14478 134.003 1.47561 134.003 1.82069V54.41C134.177 54.422 134.354 54.4364 134.528 54.4531V1.82069C134.528 1.33787 134.334 0.874901 133.989 0.533506C133.644 0.192112 133.177 0.000221883 132.689 0Z" fill="#3F3D56"/>
<path d="M100.444 89.4456C100.419 89.2733 100.4 89.0987 100.381 88.9264C100.376 88.9001 100.373 88.8762 100.371 88.8498C100.301 88.2206 100.25 87.585 100.219 86.943C100.086 87.4957 99.9661 88.0508 99.859 88.6082C99.8662 88.6896 99.8735 88.7685 99.883 88.8498C99.8855 88.8762 99.8879 88.9001 99.8927 88.9264C99.9121 89.0987 99.9314 89.2733 99.9556 89.4456C100.023 89.9791 100.105 90.5055 100.202 91.0294C100.204 91.0079 100.207 90.9887 100.209 90.9672C100.277 90.4624 100.354 89.96 100.446 89.4576C100.444 89.4539 100.443 89.4497 100.444 89.4456ZM134.528 53.9721C134.354 53.9554 134.178 53.941 134.004 53.929C133.977 53.9267 133.953 53.9267 133.926 53.9243C133.153 53.8668 132.371 53.8381 131.583 53.8381C127.125 53.8395 122.716 54.7667 118.641 56.5597C114.567 58.3528 110.917 60.972 107.928 64.2484C104.939 67.5247 102.676 71.3853 101.286 75.5811C99.8965 79.777 99.4103 84.2148 99.859 88.6082C99.8662 88.6896 99.8735 88.7685 99.883 88.8498C99.8855 88.8762 99.8879 88.9001 99.8927 88.9264C99.912 89.0987 99.9314 89.2733 99.9556 89.4456C100.023 89.9791 100.105 90.5055 100.202 91.0294C101.162 96.2239 103.416 101.099 106.76 105.212C110.103 109.325 114.431 112.546 119.35 114.583C119.853 114.789 120.36 114.985 120.875 115.165C121.213 115.287 121.551 115.399 121.894 115.507C122.14 115.586 122.389 115.66 122.638 115.732C122.991 115.835 123.348 115.933 123.708 116.024C128.123 117.146 132.731 117.312 137.217 116.512C141.703 115.712 145.962 113.964 149.705 111.387H149.707C153.952 108.485 157.421 104.605 159.818 100.082C162.215 95.5591 163.468 90.5273 163.469 85.419C163.469 68.9874 150.734 55.4483 134.528 53.9721ZM149.497 110.949C148.021 111.97 146.459 112.863 144.828 113.617C143.656 114.16 142.45 114.63 141.219 115.024C135.662 116.795 129.717 116.999 124.049 115.615C123.624 115.512 123.202 115.399 122.783 115.277C122.37 115.158 121.961 115.031 121.556 114.897C121.225 114.784 120.894 114.67 120.566 114.548C120.223 114.418 119.884 114.284 119.546 114.146C114.459 112.046 110.018 108.661 106.666 104.329C103.315 99.9962 101.17 94.8683 100.446 89.4576C100.444 89.4539 100.443 89.4497 100.444 89.4456C100.419 89.2733 100.4 89.0987 100.381 88.9264C100.376 88.9001 100.373 88.8762 100.371 88.8498C100.301 88.2206 100.25 87.585 100.219 86.943C100.192 86.4382 100.179 85.9302 100.18 85.419C100.189 77.1729 103.501 69.2671 109.388 63.4363C115.275 57.6054 123.257 54.3257 131.583 54.3166C132.371 54.3166 133.153 54.3453 133.926 54.4028C133.953 54.4052 133.977 54.4075 134.004 54.4099C134.178 54.4219 134.354 54.4363 134.528 54.453C150.468 55.9268 162.986 69.2506 162.986 85.419C162.985 90.4368 161.758 95.3799 159.409 99.8258C157.06 104.272 153.659 108.088 149.497 110.949ZM120.566 114.548C120.223 114.418 119.884 114.284 119.546 114.146C114.459 112.046 110.018 108.661 106.666 104.329C103.315 99.9962 101.17 94.8683 100.446 89.4576C100.354 89.96 100.277 90.4624 100.209 90.9672C100.207 90.9887 100.204 91.0079 100.202 91.0294C101.162 96.2239 103.416 101.099 106.76 105.212C110.104 109.325 114.431 112.546 119.351 114.583C119.853 114.789 120.36 114.985 120.875 115.165C120.769 114.962 120.665 114.756 120.566 114.548ZM133.926 53.9243C133.153 53.8668 132.371 53.8381 131.583 53.8381C127.125 53.8395 122.716 54.7667 118.641 56.5597C114.567 58.3528 110.917 60.972 107.928 64.2484C104.939 67.5247 102.676 71.3853 101.286 75.5811C99.8965 79.777 99.4103 84.2148 99.859 88.6082C99.8662 88.6896 99.8735 88.7685 99.883 88.8498C99.8855 88.8762 99.8879 88.9001 99.8927 88.9264H100.381C100.376 88.9001 100.373 88.8762 100.371 88.8498C100.301 88.2206 100.25 87.585 100.219 86.943C100.192 86.4382 100.179 85.9302 100.18 85.419C100.189 77.1729 103.501 69.2671 109.388 63.4363C115.275 57.6054 123.257 54.3257 131.583 54.3166C132.371 54.3166 133.153 54.3453 133.926 54.4028C133.953 54.4052 133.977 54.4075 134.003 54.4099V53.929C133.977 53.9267 133.953 53.9267 133.926 53.9243H133.926Z" fill="#3F3D56"/>
<path d="M157.501 61.9216C167.295 62.0873 167.294 76.516 157.501 76.6803C147.707 76.5146 147.709 62.0859 157.501 61.9216Z" fill="#F9A826"/>
<path d="M157.501 73.3189C157.363 73.3188 157.23 73.2641 157.131 73.1669C157.033 73.0696 156.978 72.9378 156.978 72.8003V70.0507C156.978 69.9894 156.953 69.9306 156.909 69.8873C156.866 69.844 156.806 69.8196 156.745 69.8195H153.968C153.829 69.8195 153.696 69.7648 153.598 69.6676C153.5 69.5703 153.445 69.4384 153.445 69.3008C153.445 69.1633 153.5 69.0313 153.598 68.934C153.696 68.8368 153.829 68.7821 153.968 68.7821H156.745C156.806 68.7821 156.866 68.7577 156.909 68.7144C156.953 68.6711 156.978 68.6124 156.978 68.5511V65.8013C156.978 65.6638 157.033 65.5319 157.131 65.4346C157.229 65.3374 157.363 65.2827 157.501 65.2827C157.64 65.2827 157.773 65.3374 157.872 65.4346C157.97 65.5319 158.025 65.6638 158.025 65.8013V68.5511C158.025 68.6124 158.05 68.6711 158.093 68.7144C158.137 68.7577 158.196 68.7821 158.258 68.7821H161.035C161.173 68.7821 161.307 68.8368 161.405 68.934C161.503 69.0313 161.558 69.1632 161.558 69.3008C161.558 69.4384 161.503 69.5703 161.405 69.6676C161.307 69.7648 161.173 69.8195 161.035 69.8195H158.258C158.196 69.8196 158.137 69.844 158.093 69.8873C158.05 69.9306 158.025 69.9894 158.025 70.0506V72.8003C158.025 72.9378 157.97 73.0696 157.871 73.1668C157.773 73.2641 157.64 73.3188 157.501 73.3189Z" fill="white"/>
</g>
<path d="M0 137C0 133.134 3.13401 130 7 130H143C146.866 130 150 133.134 150 137V168C150 171.866 146.866 175 143 175H7C3.13401 175 0 171.866 0 168V137Z" fill="#E4BB4F"/>
<path d="M0 146.326C0 137.309 7.94826 130 17.7529 130H132.247C142.052 130 150 137.309 150 146.326V158.674C150 167.691 142.052 175 132.247 175H17.7529C7.94826 175 0 167.691 0 158.674V146.326Z" fill="#E4BB4F"/>
<path d="M0 137C0 133.134 3.13401 130 7 130H143C146.866 130 150 133.134 150 137V168C150 171.866 146.866 175 143 175H7C3.13401 175 0 171.866 0 168V137Z" stroke="#E4BB4F"/>
<path d="M0 146.326C0 137.309 7.94826 130 17.7529 130H132.247C142.052 130 150 137.309 150 146.326V158.674C150 167.691 142.052 175 132.247 175H17.7529C7.94826 175 0 167.691 0 158.674V146.326Z" stroke="#E4BB4F"/>
<path d="M31.833 153.592H34.3897L33.1318 149.627L31.833 153.592ZM31.9629 147.324H34.3418L37.9102 157.4H35.627L34.9775 155.329H31.2656L30.5684 157.4H28.3672L31.9629 147.324ZM41.7861 149.771C42.2373 149.771 42.6384 149.871 42.9893 150.072C43.3402 150.268 43.625 150.541 43.8438 150.892V147.337H45.8193V157.4H43.9258V156.368C43.6478 156.81 43.3311 157.131 42.9756 157.332C42.6201 157.532 42.1781 157.632 41.6494 157.632C40.779 157.632 40.0453 157.281 39.4482 156.58C38.8558 155.873 38.5596 154.969 38.5596 153.866C38.5596 152.594 38.8512 151.594 39.4346 150.865C40.0225 150.136 40.8063 149.771 41.7861 149.771ZM42.21 155.992C42.7614 155.992 43.1807 155.787 43.4678 155.376C43.7549 154.966 43.8984 154.435 43.8984 153.784C43.8984 152.872 43.6683 152.221 43.208 151.829C42.9255 151.592 42.5973 151.473 42.2236 151.473C41.654 151.473 41.2347 151.69 40.9658 152.123C40.7015 152.551 40.5693 153.084 40.5693 153.722C40.5693 154.41 40.7038 154.962 40.9727 155.376C41.2461 155.787 41.6585 155.992 42.21 155.992ZM50.3447 149.771C50.7959 149.771 51.1969 149.871 51.5479 150.072C51.8988 150.268 52.1836 150.541 52.4023 150.892V147.337H54.3779V157.4H52.4844V156.368C52.2064 156.81 51.8897 157.131 51.5342 157.332C51.1787 157.532 50.7367 157.632 50.208 157.632C49.3376 157.632 48.6038 157.281 48.0068 156.58C47.4144 155.873 47.1182 154.969 47.1182 153.866C47.1182 152.594 47.4098 151.594 47.9932 150.865C48.5811 150.136 49.3649 149.771 50.3447 149.771ZM50.7686 155.992C51.32 155.992 51.7393 155.787 52.0264 155.376C52.3135 154.966 52.457 154.435 52.457 153.784C52.457 152.872 52.2269 152.221 51.7666 151.829C51.4841 151.592 51.1559 151.473 50.7822 151.473C50.2126 151.473 49.7933 151.69 49.5244 152.123C49.2601 152.551 49.1279 153.084 49.1279 153.722C49.1279 154.41 49.2624 154.962 49.5313 155.376C49.8047 155.787 50.2171 155.992 50.7686 155.992ZM66.8877 147.324H69.916V157.4H67.9541V150.584C67.9541 150.389 67.9564 150.115 67.9609 149.764C67.9655 149.409 67.9678 149.135 67.9678 148.944L66.0606 157.4H64.0166L62.1231 148.944C62.1231 149.135 62.1253 149.409 62.1299 149.764C62.1344 150.115 62.1367 150.389 62.1367 150.584V157.4H60.1748V147.324H63.2373L65.0693 155.247L66.8877 147.324ZM74.6533 151.357C74.2022 151.357 73.8512 151.498 73.6006 151.781C73.3545 152.063 73.1995 152.446 73.1357 152.929H76.1641C76.1322 152.414 75.9749 152.025 75.6924 151.76C75.4144 151.491 75.068 151.357 74.6533 151.357ZM74.6533 149.75C75.2731 149.75 75.8314 149.867 76.3281 150.099C76.8249 150.332 77.235 150.698 77.5586 151.2C77.8503 151.642 78.0394 152.154 78.126 152.738C78.1761 153.08 78.1966 153.572 78.1875 154.214H73.0879C73.1152 154.962 73.3499 155.486 73.792 155.787C74.0609 155.973 74.3844 156.067 74.7627 156.067C75.1637 156.067 75.4896 155.953 75.7402 155.725C75.877 155.602 75.9977 155.431 76.1025 155.212H78.0918C78.0417 155.654 77.8115 156.103 77.4014 156.559C76.7634 157.284 75.8701 157.646 74.7217 157.646C73.7738 157.646 72.9375 157.341 72.2129 156.73C71.4883 156.119 71.126 155.126 71.126 153.75C71.126 152.46 71.4518 151.471 72.1035 150.783C72.7598 150.095 73.6097 149.75 74.6533 149.75ZM83.6357 149.771C84.4059 149.771 85.0348 149.974 85.5225 150.379C86.0146 150.78 86.2607 151.448 86.2607 152.382V157.4H84.2646V152.868C84.2646 152.476 84.2122 152.175 84.1074 151.965C83.916 151.583 83.5514 151.391 83.0137 151.391C82.3529 151.391 81.8994 151.671 81.6533 152.232C81.5257 152.528 81.4619 152.906 81.4619 153.367V157.4H79.5205V149.962H81.4004V151.049C81.651 150.667 81.888 150.391 82.1113 150.222C82.5124 149.921 83.0205 149.771 83.6357 149.771ZM87.2998 151.405V150.017H88.3389V147.939H90.2666V150.017H91.4766V151.405H90.2666V155.342C90.2666 155.648 90.3053 155.839 90.3828 155.917C90.4603 155.989 90.6973 156.026 91.0938 156.026C91.153 156.026 91.2145 156.026 91.2783 156.026C91.3467 156.021 91.4128 156.017 91.4766 156.012V157.468L90.5537 157.502C89.6331 157.534 89.0042 157.375 88.667 157.024C88.4482 156.801 88.3389 156.457 88.3389 155.992V151.405H87.2998ZM96.0703 156.026C96.64 156.026 97.0775 155.823 97.3828 155.417C97.6882 155.012 97.8408 154.435 97.8408 153.688C97.8408 152.941 97.6882 152.366 97.3828 151.965C97.0775 151.56 96.64 151.357 96.0703 151.357C95.5007 151.357 95.0609 151.56 94.751 151.965C94.4456 152.366 94.293 152.941 94.293 153.688C94.293 154.435 94.4456 155.012 94.751 155.417C95.0609 155.823 95.5007 156.026 96.0703 156.026ZM99.8848 153.688C99.8848 154.782 99.5703 155.718 98.9414 156.498C98.3125 157.272 97.3577 157.66 96.0771 157.66C94.7965 157.66 93.8418 157.272 93.2129 156.498C92.584 155.718 92.2695 154.782 92.2695 153.688C92.2695 152.612 92.584 151.681 93.2129 150.892C93.8418 150.104 94.7965 149.709 96.0771 149.709C97.3577 149.709 98.3125 150.104 98.9414 150.892C99.5703 151.681 99.8848 152.612 99.8848 153.688ZM105.333 149.771C105.369 149.771 105.399 149.773 105.422 149.778C105.449 149.778 105.506 149.78 105.593 149.785V151.781C105.47 151.767 105.36 151.758 105.265 151.753C105.169 151.749 105.091 151.747 105.032 151.747C104.248 151.747 103.722 152.002 103.453 152.512C103.303 152.799 103.228 153.241 103.228 153.838V157.4H101.266V149.949H103.125V151.248C103.426 150.751 103.688 150.411 103.911 150.229C104.276 149.924 104.75 149.771 105.333 149.771ZM108.259 155.021C108.3 155.367 108.389 155.613 108.525 155.759C108.767 156.019 109.214 156.149 109.865 156.149C110.248 156.149 110.551 156.092 110.774 155.978C111.002 155.864 111.116 155.693 111.116 155.465C111.116 155.247 111.025 155.08 110.843 154.966C110.66 154.852 109.984 154.656 108.812 154.378C107.969 154.169 107.375 153.907 107.028 153.592C106.682 153.282 106.509 152.836 106.509 152.252C106.509 151.564 106.778 150.974 107.315 150.482C107.858 149.985 108.619 149.737 109.599 149.737C110.528 149.737 111.285 149.924 111.868 150.297C112.456 150.667 112.793 151.307 112.88 152.218H110.932C110.904 151.968 110.834 151.769 110.72 151.624C110.506 151.359 110.141 151.227 109.626 151.227C109.202 151.227 108.899 151.293 108.717 151.425C108.539 151.557 108.45 151.712 108.45 151.89C108.45 152.113 108.546 152.275 108.737 152.375C108.929 152.48 109.605 152.66 110.768 152.916C111.542 153.098 112.123 153.374 112.511 153.743C112.894 154.116 113.085 154.583 113.085 155.144C113.085 155.882 112.809 156.486 112.258 156.956C111.711 157.42 110.863 157.653 109.715 157.653C108.544 157.653 107.678 157.407 107.117 156.915C106.561 156.418 106.283 155.787 106.283 155.021H108.259ZM118.021 154.583V152.799H120.823V149.997H122.621V152.799H125.424V154.583H122.621V157.4H120.823V154.583H118.021Z" fill="white"/>
<defs>
<clipPath id="clip0">
<rect width="167" height="117" fill="white" transform="translate(3)"/>
</clipPath>
</defs>
</svg>
