<svg width="25" height="24" viewBox="0 0 25 24" fill="none" xmlns="http://www.w3.org/2000/svg">
<path fill-rule="evenodd" clip-rule="evenodd" d="M12.7021 24C5.98159 24 0.533569 18.6274 0.533569 12C0.533569 5.37258 5.98159 0 12.7021 0C19.4225 0 24.8705 5.37258 24.8705 12C24.8705 18.6274 19.4225 24 12.7021 24ZM12.7021 21.8182C18.2006 21.8182 22.6581 17.4224 22.6581 12C22.6581 6.57757 18.2006 2.18182 12.7021 2.18182C7.20349 2.18182 2.74602 6.57757 2.74602 12C2.74602 17.4224 7.20349 21.8182 12.7021 21.8182ZM9.05932 17.135L12.702 13.5428L16.3447 17.135L17.9091 15.5922L14.2664 12L17.9091 8.40775L16.3447 6.86497L12.702 10.4572L9.05932 6.86497L7.49488 8.40775L11.1376 12L7.49488 15.5922L9.05932 17.135Z" fill="#A62B31"/>
</svg>
