<svg width="93" height="92" viewBox="0 0 93 92" fill="none" xmlns="http://www.w3.org/2000/svg">
<circle cx="46.9091" cy="45.697" r="45.4545" fill="#E5E5E5"/>
<path fill-rule="evenodd" clip-rule="evenodd" d="M46 91.8333C20.687 91.8333 0.166687 71.3131 0.166687 46C0.166687 20.687 20.687 0.166672 46 0.166672C71.3131 0.166672 91.8334 20.687 91.8334 46C91.8334 71.3131 71.3131 91.8333 46 91.8333ZM76.8313 67.3527C81.0359 61.293 83.5 53.9343 83.5 46C83.5 25.2893 66.7107 8.5 46 8.5C25.2893 8.5 8.50002 25.2893 8.50002 46C8.50002 53.9343 10.9641 61.293 15.1688 67.3527C19.8582 61.1586 30.8775 58.5 46 58.5C61.1225 58.5 72.1419 61.1586 76.8313 67.3527ZM70.8529 74.0823C69.6334 69.6973 60.8725 66.8333 46 66.8333C31.1276 66.8333 22.3667 69.6973 21.1472 74.0824C27.7638 79.9424 36.4664 83.5 46 83.5C55.5336 83.5 64.2363 79.9424 70.8529 74.0823ZM46 21C35.9129 21 29.3334 28.3157 29.3334 37.6667C29.3334 51.9474 36.6703 58.5 46 58.5C55.2421 58.5 62.6667 52.1651 62.6667 38.5C62.6667 29.0066 56.0592 21 46 21ZM37.6667 37.6667C37.6667 47.1219 41.0759 50.1667 46 50.1667C50.9071 50.1667 54.3334 47.2433 54.3334 38.5C54.3334 33.2934 51.0653 29.3333 46 29.3333C40.7239 29.3333 37.6667 32.7326 37.6667 37.6667Z" fill="#C4C4C4"/>
</svg>
